<?xml version="1.0" standalone="no"?>
<!DOCTYPE svg PUBLIC "-//W3C//DTD SVG 20010904//EN"
 "http://www.w3.org/TR/2001/REC-SVG-20010904/DTD/svg10.dtd">
<svg version="1.0" xmlns="http://www.w3.org/2000/svg"
 width="1024.000000pt" height="1024.000000pt" viewBox="0 0 1024.000000 1024.000000"
 preserveAspectRatio="xMidYMid meet">

<g transform="translate(0.000000,1024.000000) scale(0.100000,-0.100000)"
fill="#000000" stroke="none">
<path d="M6850 9717 c-57 -29 -125 -126 -177 -250 -27 -67 -43 -92 -64 -103
-37 -19 -201 -175 -218 -208 -18 -32 -24 -32 -64 -2 -52 40 -212 114 -284 131
-10 3 -42 11 -71 19 -146 41 -348 43 -487 6 -233 -63 -458 -253 -499 -422 -8
-36 -27 -35 -49 1 -23 39 -110 121 -176 166 -77 53 -209 111 -314 139 -113 29
-93 27 -265 33 -109 3 -163 1 -224 -12 -99 -20 -240 -72 -316 -117 -52 -30
-179 -149 -243 -226 -19 -22 -38 -33 -68 -38 -22 -4 -41 -11 -41 -16 0 -5 -4
-7 -8 -4 -11 7 -65 -14 -127 -47 -73 -40 -86 -48 -132 -89 -47 -42 -72 -47
-95 -20 -20 24 -46 82 -52 119 -9 46 -54 175 -64 182 -5 3 -12 19 -16 35 -8
32 -57 83 -94 97 -31 12 -83 -11 -110 -48 -29 -41 -69 -165 -77 -239 -4 -34
-10 -66 -14 -71 -3 -5 -35 -26 -71 -46 l-65 -36 -97 49 c-125 63 -154 68 -211
41 -70 -34 -85 -98 -46 -200 21 -57 92 -155 103 -144 3 3 6 1 6 -5 0 -6 20
-29 44 -52 37 -35 45 -50 56 -103 18 -85 45 -162 70 -196 11 -16 20 -31 20
-33 0 -3 -24 -20 -52 -38 -235 -151 -351 -415 -290 -657 11 -45 32 -99 46
-122 51 -80 156 -101 109 -21 -9 16 -20 30 -23 30 -4 0 -7 6 -8 13 0 6 -8 39
-16 72 -20 75 -20 196 -2 257 29 93 114 233 132 216 3 -4 1 -53 -4 -110 -12
-117 -3 -234 24 -323 28 -91 26 -304 -4 -406 -67 -230 -222 -384 -400 -396
-115 -9 -184 23 -238 109 -28 44 -45 48 -68 13 -51 -77 37 -241 161 -302 50
-24 69 -27 148 -27 75 0 102 5 158 28 38 15 70 26 73 23 7 -7 -37 -116 -79
-196 -81 -152 -184 -257 -283 -287 -63 -19 -159 -18 -217 2 -26 9 -54 13 -62
10 -41 -15 4 -102 70 -134 77 -37 141 -46 228 -30 83 16 97 9 56 -28 -66 -60
-197 -286 -239 -412 -83 -253 -46 -551 88 -703 33 -36 42 -41 65 -35 33 8 34
19 3 87 -29 64 -56 188 -56 259 0 91 48 272 79 300 4 3 22 30 42 60 45 69 125
157 134 148 3 -3 -10 -49 -29 -102 -56 -149 -70 -223 -69 -376 0 -160 15 -234
73 -356 77 -160 247 -298 392 -317 25 -3 41 0 49 10 10 11 0 26 -55 78 -36 35
-70 65 -74 67 -9 4 -46 68 -77 133 -38 79 -60 326 -26 289 5 -5 19 -38 31 -74
57 -163 127 -255 303 -398 87 -71 117 -119 119 -190 5 -169 -78 -274 -243
-307 -57 -11 -39 -74 27 -95 50 -17 140 -8 194 19 64 31 127 78 152 112 12 16
26 29 31 29 5 0 6 -36 3 -83 -9 -114 -14 -140 -43 -234 -29 -91 -24 -113 25
-113 52 0 157 85 214 172 29 47 48 54 48 20 0 -27 63 -235 110 -361 78 -212
169 -396 276 -558 41 -61 80 -118 87 -125 6 -8 27 -34 46 -58 19 -25 45 -56
57 -70 13 -14 55 -59 93 -100 77 -83 173 -209 195 -255 9 -20 16 -86 20 -190
19 -511 119 -765 376 -955 226 -166 530 -272 910 -316 176 -20 530 -15 680 10
135 23 320 66 320 75 0 4 12 8 28 9 31 1 156 44 267 91 85 37 237 117 251 132
9 11 23 19 31 19 7 0 36 16 63 35 28 19 72 51 100 70 78 55 87 63 221 196 70
70 135 141 143 158 9 17 20 31 25 31 8 0 82 107 133 193 30 52 90 187 82 187
-2 0 2 10 10 23 21 32 56 158 56 200 0 52 -7 63 -64 104 -124 90 -193 180
-236 307 -22 68 -56 254 -47 262 3 3 27 -9 53 -26 85 -59 200 -75 223 -31 11
20 4 35 -43 85 -42 46 -79 153 -74 216 l3 44 33 -33 c17 -18 32 -29 32 -24 0
4 4 3 8 -3 21 -32 136 -71 237 -80 119 -11 235 26 256 82 11 32 -3 44 -64 54
-66 10 -111 34 -125 65 -9 20 -5 26 38 54 27 18 65 50 84 72 38 45 97 152 116
212 6 21 17 36 23 34 20 -6 49 -107 54 -187 4 -51 0 -94 -10 -134 -36 -134 50
-127 155 12 75 99 110 249 88 381 -7 42 -19 91 -26 109 -12 29 -11 32 5 32 10
0 46 -12 82 -26 78 -33 237 -44 328 -24 130 28 284 136 297 207 9 45 -11 50
-100 28 -63 -16 -82 -16 -152 -6 -106 15 -174 51 -254 131 -61 62 -110 134
-98 145 3 3 27 -4 53 -15 77 -33 178 -45 276 -32 94 12 191 44 220 73 11 11
25 19 33 19 21 0 141 115 174 167 41 64 58 124 43 151 -14 26 -26 24 -92 -19
-91 -60 -98 -63 -199 -63 -84 -1 -101 2 -150 26 -93 47 -117 62 -131 84 -8 12
-29 43 -46 69 -36 54 -63 134 -63 189 0 20 13 62 29 94 15 31 43 98 61 147 18
50 36 99 41 110 22 52 41 191 42 301 1 114 2 120 18 100 18 -23 34 -74 74
-223 15 -57 22 -179 14 -268 -9 -110 -42 -194 -99 -255 -36 -38 -37 -48 -8
-59 54 -20 172 63 272 188 168 211 231 455 196 751 -11 88 -28 178 -39 195 -3
6 -7 21 -9 35 -7 61 -103 280 -122 280 -6 0 -10 6 -10 14 0 8 -7 22 -16 30 -8
9 -13 16 -9 16 3 0 -3 13 -14 29 -12 16 -21 32 -21 36 0 9 80 -37 160 -93 235
-164 307 -397 201 -645 -34 -80 19 -107 78 -40 44 50 69 101 92 190 25 98 24
174 -2 287 -22 93 -71 206 -90 206 -5 0 -8 4 -5 9 8 13 -59 97 -144 179 -77
76 -213 172 -335 238 -38 21 -86 53 -105 71 -19 18 -39 33 -45 34 -13 1 -118
119 -112 126 3 2 42 -1 88 -8 178 -26 394 20 488 105 138 124 186 221 129 260
-19 14 -24 13 -47 -5 -106 -82 -185 -109 -313 -109 -51 0 -113 5 -138 11 -49
11 -246 96 -270 117 -8 7 -49 39 -90 71 -97 75 -290 277 -290 303 0 4 26 -4
58 -18 185 -84 298 -114 430 -114 102 0 196 21 285 63 75 36 167 109 167 133
0 8 4 14 10 14 16 0 23 49 10 65 -19 22 -48 18 -106 -15 -93 -52 -169 -72
-274 -73 -153 0 -309 45 -455 134 -112 68 -253 213 -325 334 -13 22 -28 43
-33 46 -5 3 -8 9 -8 13 3 19 -71 147 -143 245 -34 47 -199 200 -232 216 -22
10 -43 24 -49 31 -5 7 -37 28 -70 46 -66 37 -78 61 -61 117 7 22 23 41 51 58
52 32 128 115 166 178 90 155 -37 248 -256 185 -90 -26 -104 -25 -170 7 l-55
27 -1 121 c0 134 -16 195 -59 226 -41 30 -80 32 -130 6z m97 -132 c9 -34 11
-79 7 -140 -5 -84 -4 -93 18 -125 16 -24 48 -47 98 -72 41 -21 81 -38 89 -38
8 0 62 12 121 26 112 28 180 27 180 -1 0 -46 -73 -134 -166 -201 -67 -48 -76
-63 -99 -161 -18 -79 -62 -162 -112 -215 l-35 -36 43 -27 c105 -65 219 -205
261 -321 41 -113 25 -256 -40 -360 -23 -38 -121 -119 -142 -119 -5 0 -25 33
-45 73 -127 266 -331 454 -685 632 -47 24 -100 54 -118 67 l-32 24 40 59 c22
32 65 88 95 123 l55 65 -7 109 c-5 97 -4 114 15 153 27 57 34 66 107 122 89
67 119 102 144 166 55 137 138 255 174 250 16 -2 24 -15 34 -53z m-4229 -631
c12 -21 36 -84 53 -139 16 -55 35 -114 40 -132 6 -17 38 -63 72 -101 87 -97
107 -141 107 -236 0 -92 16 -134 64 -171 l36 -27 -81 -87 c-130 -138 -204
-258 -255 -411 -17 -53 -37 -96 -45 -98 -8 -1 -28 6 -45 17 -79 48 -134 178
-134 315 l0 82 -64 42 c-39 25 -76 60 -95 88 -29 44 -36 63 -76 199 -15 51
-28 70 -90 132 -100 99 -149 201 -111 232 19 16 103 -14 175 -63 63 -43 105
-46 159 -13 20 12 58 34 83 47 54 28 74 57 82 122 18 136 61 255 90 245 7 -2
22 -21 35 -43z m2078 -1022 c128 -65 288 -67 545 -8 203 47 279 57 424 56 211
0 389 -54 529 -160 158 -119 198 -238 161 -480 -25 -162 -22 -353 6 -440 35
-107 88 -196 167 -283 112 -123 150 -174 189 -250 36 -72 113 -289 113 -319 0
-16 -14 -18 -147 -19 -209 -2 -365 0 -455 7 l-78 6 -57 57 c-75 73 -210 144
-318 166 -62 13 -118 16 -259 12 -100 -2 -199 -7 -221 -11 -193 -32 -505 -123
-641 -187 -128 -61 -168 -104 -189 -209 -10 -49 -16 -58 -51 -77 -98 -56 -363
-84 -493 -53 -50 12 -53 15 -82 74 -35 68 -79 120 -124 143 -37 20 -204 77
-286 98 -146 38 -439 57 -514 34 -22 -7 -46 -14 -53 -15 -41 -8 -129 -103
-159 -173 -22 -50 -37 -25 -46 77 -12 137 -19 763 -8 776 6 7 11 49 12 94 1
45 6 85 10 88 5 3 9 25 9 49 0 24 5 47 10 50 6 3 10 21 10 40 0 19 5 37 10 40
6 3 10 17 10 30 0 13 5 27 10 30 6 3 10 14 10 24 0 21 109 221 167 307 94 139
266 261 418 299 73 19 269 16 375 -4 47 -9 244 -31 290 -32 36 -1 180 21 232
35 106 29 228 95 288 155 l55 56 45 -31 c25 -18 63 -41 86 -52z m1415 -1998
c327 -34 388 -71 424 -259 22 -113 17 -352 -11 -501 -6 -34 -96 -117 -259
-239 -409 -307 -908 -448 -1310 -370 -111 22 -176 54 -252 127 -88 85 -152
173 -261 358 -50 85 -109 174 -131 196 -53 55 -114 84 -180 84 -117 0 -168
-66 -221 -286 -108 -451 -208 -564 -498 -564 -175 0 -370 43 -575 126 -321
129 -463 307 -522 648 -19 111 -20 246 -1 289 45 108 240 185 516 205 273 20
587 -8 887 -79 48 -11 97 -23 108 -25 11 -3 67 -12 125 -21 182 -27 310 -5
580 102 299 119 567 180 950 218 108 11 495 5 631 -9z m974 -212 c14 -32 14
-32 -28 -62 -23 -17 -91 -66 -152 -110 -60 -44 -113 -80 -117 -80 -4 0 -9 36
-10 80 -1 44 -2 90 -2 102 -1 19 11 25 94 49 52 15 113 35 135 43 53 20 64 17
80 -22z m411 -288 c44 -20 102 -44 129 -54 48 -16 50 -18 47 -51 -9 -103 -101
-500 -147 -631 -64 -187 -177 -291 -315 -292 -50 -1 -74 4 -106 23 -82 47 -90
30 -124 -264 -53 -456 -170 -757 -430 -1104 -333 -447 -914 -853 -1437 -1005
-237 -69 -322 -81 -568 -80 -204 0 -227 2 -320 26 -232 60 -360 132 -463 263
-35 44 -111 135 -170 203 -186 214 -202 234 -284 357 -176 261 -320 634 -417
1075 -48 219 -114 589 -106 598 1 1 49 -13 107 -33 145 -48 279 -74 438 -85
195 -14 333 10 402 68 27 23 31 24 24 7 -60 -157 -72 -305 -32 -392 31 -65 92
-125 164 -159 l57 -28 -65 -13 c-114 -23 -273 -116 -380 -223 -108 -107 -164
-228 -164 -355 0 -117 48 -178 142 -177 52 1 80 13 212 93 64 38 123 69 132
69 9 0 54 -9 99 -20 219 -52 528 -48 784 9 243 55 274 53 532 -35 183 -62 211
-64 268 -10 25 24 35 43 41 81 14 96 -34 243 -110 331 -42 49 -165 136 -241
169 -141 63 -390 115 -545 115 -96 0 -246 -25 -323 -54 -46 -18 -87 -26 -130
-26 -79 0 -107 15 -46 25 24 3 88 31 142 61 116 64 166 78 234 64 26 -6 73
-15 104 -22 72 -14 100 -6 153 42 88 82 83 213 -14 323 -35 41 -54 45 -88 21
-31 -21 -28 -48 13 -101 42 -55 54 -106 34 -142 -19 -34 -46 -37 -156 -15
-126 24 -183 13 -301 -58 l-87 -53 -90 0 c-108 1 -175 26 -229 86 -69 76 -69
141 0 369 44 145 92 328 139 540 21 91 44 177 51 192 38 74 111 70 184 -10 25
-26 67 -89 95 -138 187 -335 340 -494 523 -543 387 -103 878 -5 1297 258 116
73 277 197 420 322 55 49 150 124 210 167 l110 80 6 -27 c9 -44 52 -122 78
-142 67 -53 146 20 187 174 17 65 18 129 2 146 -11 10 -10 11 4 6 9 -4 36 -31
59 -61 22 -29 56 -63 73 -74 116 -71 116 -127 -3 -254 -68 -73 -100 -136 -108
-210 -7 -65 5 -86 48 -86 32 0 31 -1 69 106 16 45 40 82 90 139 89 99 108 150
91 243 -11 59 -56 166 -83 199 -17 21 4 16 88 -23z m-556 -2181 c1 -422 21
-617 83 -785 46 -127 92 -187 242 -321 l40 -35 -24 -74 c-149 -466 -589 -890
-1133 -1092 -459 -170 -956 -198 -1438 -80 -368 91 -623 247 -749 458 -80 133
-128 338 -138 585 l-6 145 34 -23 c57 -38 178 -91 268 -117 233 -68 542 -73
832 -14 569 116 1241 534 1623 1009 51 64 120 157 153 206 72 108 179 299 188
338 18 69 25 10 25 -200z m-2614 168 c32 -16 95 -37 139 -46 135 -29 138 -31
70 -41 -74 -11 -423 -11 -450 -1 -17 7 -11 13 41 41 34 18 74 42 89 54 35 28
40 28 111 -7z"/>
<path d="M6788 9223 c-21 -5 -32 -48 -18 -73 12 -22 52 -36 70 -25 24 15 31
57 15 81 -15 23 -30 27 -67 17z"/>
<path d="M7004 9055 c-20 -31 -15 -53 17 -77 33 -25 64 -12 72 29 12 63 -55
99 -89 48z"/>
<path d="M6817 9033 c-4 -3 -7 -16 -7 -29 0 -64 -40 -73 -83 -19 -33 42 -64
46 -73 10 -15 -60 19 -103 103 -135 32 -12 74 -36 93 -54 36 -35 71 -56 89
-56 6 0 20 9 31 20 27 27 14 53 -40 80 -22 11 -41 26 -41 33 -3 25 3 43 20 62
31 35 32 53 4 75 -25 19 -82 27 -96 13z"/>
<path d="M2641 8499 c-31 -34 -10 -89 34 -89 25 0 55 29 55 53 0 21 -35 57
-55 57 -8 0 -23 -9 -34 -21z"/>
<path d="M2436 8404 c-32 -32 -38 -54 -22 -79 9 -13 24 -26 35 -30 21 -6 61 9
61 25 0 4 2 15 6 23 5 14 -40 77 -56 77 -5 0 -16 -7 -24 -16z"/>
<path d="M2597 8332 c-15 -9 -31 -28 -34 -41 -5 -20 1 -30 30 -53 45 -36 39
-55 -19 -69 -55 -14 -74 -42 -47 -71 23 -25 87 -21 130 9 15 11 53 28 83 38
97 32 152 115 98 149 -14 8 -23 5 -46 -17 -48 -46 -102 -30 -102 32 0 20 -27
41 -52 41 -7 0 -26 -8 -41 -18z"/>
<path d="M5790 5803 c-442 -22 -952 -125 -1119 -225 -151 -90 -166 -196 -64
-438 91 -213 238 -403 353 -454 188 -85 505 -72 821 34 300 100 655 344 710
488 20 53 21 70 16 227 -6 200 -20 258 -72 304 -19 16 -51 35 -72 41 -78 23
-363 34 -573 23z"/>
<path d="M2800 5615 c-251 -39 -311 -102 -297 -315 11 -173 93 -342 216 -449
218 -188 479 -285 766 -284 133 1 197 18 272 72 64 46 131 193 189 411 12 44
18 105 18 185 1 103 -2 126 -20 160 -47 91 -184 154 -421 194 -240 41 -553 52
-723 26z"/>
<path d="M4106 3014 c-21 -21 -20 -36 4 -62 63 -67 389 -87 605 -37 77 18 105
37 105 72 0 39 -38 46 -157 28 -130 -19 -356 -19 -443 0 -83 18 -95 18 -114
-1z"/>
</g>
</svg>
